<svg height="512" viewBox="0 0 64 64" width="512" xmlns="http://www.w3.org/2000/svg"><g id="Book-2" data-name="Book"><path d="m61 7v38a3.992 3.992 0 0 0 -3-3.87v-34.13z" fill="#ff7956"/><path d="m61 45a3.995 3.995 0 0 1 -4 4h-18v-8h18a3.657 3.657 0 0 1 1 .13 3.992 3.992 0 0 1 3 3.87z" fill="#898890"/><path d="m61 45a3.995 3.995 0 0 1 -4 4h-4a4 4 0 0 0 1-7.87 3.657 3.657 0 0 0 -1-.13h4a3.657 3.657 0 0 1 1 .13 3.992 3.992 0 0 1 3 3.87z" fill="#57565c"/><path d="m58 3v38.13a3.657 3.657 0 0 0 -1-.13h-18v2h-4.12a15.973 15.973 0 0 0 -2.88-7.34v-28.66a4 4 0 0 1 4-4z" fill="#fee9ab"/><path d="m58 3v38.13a3.657 3.657 0 0 0 -1-.13h-3v-38z" fill="#ffde55"/><path d="m39 43v4h-4.12a16.727 16.727 0 0 0 0-4z" fill="#c6c5ca"/><path d="m35 45a16.524 16.524 0 0 1 -.12 2 16.016 16.016 0 1 1 0-4 16.524 16.524 0 0 1 .12 2z" fill="#c0ab91"/><path d="m32 7v28.66a16.018 16.018 0 0 0 -26 0v-32.66h22a4 4 0 0 1 4 4z" fill="#fee9ab"/><circle cx="19" cy="45" fill="#bdfdff" r="12"/><path d="m6 7v28.66a15.935 15.935 0 0 0 -3 9.34v-38z" fill="#ff7956"/><path d="m35 45a15.917 15.917 0 0 1 -5.2 11.81 16.03 16.03 0 0 1 -8.8 4.07 16.727 16.727 0 0 1 -4 0 16.03 16.03 0 0 0 8.8-4.07 16 16 0 0 0 -8.8-27.68 14.713 14.713 0 0 1 2-.13 16 16 0 0 1 16 16z" fill="#a78966"/><path d="m31 45a11.988 11.988 0 0 1 -14 11.83 12 12 0 0 0 0-23.66 11.988 11.988 0 0 1 14 11.83z" fill="#46f8ff"/><path d="m46 44h12v2h-12z"/><path d="m42 44h2v2h-2z"/><path d="m37 8h16v2h-16z"/><path d="m37 14h16v2h-16z"/><path d="m37 20h16v2h-16z"/><path d="m37 26h16v2h-16z"/><path d="m37 32h16v2h-16z"/><path d="m11 8h16v2h-16z"/><path d="m11 14h16v2h-16z"/><path d="m11 20h16v2h-16z"/><path d="m27 26h-16v2h8 8z"/><path d="m61 6h-2v-3a1 1 0 0 0 -1-1h-22a4.982 4.982 0 0 0 -4 2.031 4.982 4.982 0 0 0 -4-2.031h-22a1 1 0 0 0 -1 1v3h-2a1 1 0 0 0 -1 1v38a16.992 16.992 0 0 0 33.719 3h2.281v1a1 1 0 0 0 1 1h18a5.006 5.006 0 0 0 5-5v-38a1 1 0 0 0 -1-1zm-1 2v33.026a4.967 4.967 0 0 0 -1-.6v-32.426zm-32-4a3 3 0 0 1 3 3v25.971a16.97 16.97 0 0 0 -24 0v-28.971zm-24 4h1v27.378a16.945 16.945 0 0 0 -1 1.639zm15 52a15 15 0 1 1 15-15 15.017 15.017 0 0 1 -15 15zm16.949-14c.02-.333.051-.662.051-1s-.031-.667-.051-1h2.051v2zm2.051-5v1h-2.281a16.9 16.9 0 0 0 -2.719-6.622v-28.378a3 3 0 0 1 3-3h21v36h-18a1 1 0 0 0 -1 1zm19 7h-17v-6h17a3 3 0 0 1 0 6z"/><path d="m19 32a13 13 0 1 0 13 13 13.015 13.015 0 0 0 -13-13zm0 24a11 11 0 1 1 11-11 11.013 11.013 0 0 1 -11 11z"/><path d="m10 45h2a7.008 7.008 0 0 1 7-7v-2a9.01 9.01 0 0 0 -9 9z"/><path d="m38 56h4v2h-4z"/><path d="m44 56h18v2h-18z"/><path d="m38 52h4v2h-4z"/><path d="m44 52h18v2h-18z"/><path d="m38 60h4v2h-4z"/><path d="m44 60h18v2h-18z"/></g></svg>